<svg xmlns="http://www.w3.org/2000/svg" xmlns:xlink="http://www.w3.org/1999/xlink" viewBox="0 0 1146.55 342.38"><defs><style>.cls-1{isolation:isolate;}.cls-2{fill:#fff;}.cls-3{fill:#f1b600;}.cls-12,.cls-13,.cls-14,.cls-3,.cls-5,.cls-6,.cls-8,.cls-9{mix-blend-mode:multiply;}.cls-4{fill:url(#New_Gradient_Swatch_1);}.cls-5{fill:url(#linear-gradient);}.cls-6{fill:url(#New_Gradient_Swatch_1-2);}.cls-7{fill:url(#linear-gradient-2);}.cls-8{fill:url(#linear-gradient-3);}.cls-9{fill:#a51870;}.cls-10{fill:url(#linear-gradient-4);}.cls-11{fill:url(#linear-gradient-5);}.cls-12{fill:url(#New_Gradient_Swatch_1-3);}.cls-13{fill:url(#New_Gradient_Swatch_1-4);}.cls-14{fill:url(#New_Gradient_Swatch_1-5);}</style><linearGradient id="New_Gradient_Swatch_1" x1="278.78" y1="137.15" x2="333.95" y2="166.06" gradientUnits="userSpaceOnUse"><stop offset="0" stop-color="#a51870"/><stop offset="0.09" stop-color="#b53959"/><stop offset="0.23" stop-color="#c75f3e"/><stop offset="0.36" stop-color="#d67e27"/><stop offset="0.5" stop-color="#e29716"/><stop offset="0.65" stop-color="#eaa80a"/><stop offset="0.81" stop-color="#efb302"/><stop offset="1" stop-color="#f1b600"/></linearGradient><linearGradient id="linear-gradient" x1="283.73" y1="140.46" x2="369.81" y2="183.99" gradientUnits="userSpaceOnUse"><stop offset="0" stop-color="#a51870"/><stop offset="0.08" stop-color="#ae2b62"/><stop offset="0.3" stop-color="#c65c3f"/><stop offset="0.51" stop-color="#d98324"/><stop offset="0.7" stop-color="#e69f10"/><stop offset="0.87" stop-color="#eeb004"/><stop offset="1" stop-color="#f1b600"/></linearGradient><linearGradient id="New_Gradient_Swatch_1-2" x1="318.14" y1="156.9" x2="368.06" y2="186.62" xlink:href="#New_Gradient_Swatch_1"/><linearGradient id="linear-gradient-2" x1="291.2" y1="142.55" x2="348.86" y2="174.44" gradientUnits="userSpaceOnUse"><stop offset="0" stop-color="#a51870"/><stop offset="0.24" stop-color="#bf4d4a"/><stop offset="0.49" stop-color="#d47a2a"/><stop offset="0.7" stop-color="#e49b13"/><stop offset="0.88" stop-color="#eeaf05"/><stop offset="1" stop-color="#f1b600"/></linearGradient><linearGradient id="linear-gradient-3" x1="292.43" y1="141.66" x2="362.89" y2="183.86" gradientUnits="userSpaceOnUse"><stop offset="0" stop-color="#a51870"/><stop offset="0.12" stop-color="#b3365b"/><stop offset="0.32" stop-color="#c9633b"/><stop offset="0.52" stop-color="#db8721"/><stop offset="0.7" stop-color="#e7a10f"/><stop offset="0.87" stop-color="#eeb104"/><stop offset="1" stop-color="#f1b600"/></linearGradient><linearGradient id="linear-gradient-4" x1="303.9" y1="145.04" x2="349.43" y2="179.27" gradientUnits="userSpaceOnUse"><stop offset="0" stop-color="#a51870"/><stop offset="0.22" stop-color="#b94153"/><stop offset="0.59" stop-color="#d78027"/><stop offset="0.86" stop-color="#eaa70b"/><stop offset="1" stop-color="#f1b600"/></linearGradient><linearGradient id="linear-gradient-5" x1="296.27" y1="147.77" x2="327.18" y2="162.39" gradientUnits="userSpaceOnUse"><stop offset="0" stop-color="#a51870"/><stop offset="0.47" stop-color="#cc6a36"/><stop offset="0.83" stop-color="#e7a10f"/><stop offset="1" stop-color="#f1b600"/></linearGradient><linearGradient id="New_Gradient_Swatch_1-3" x1="336.82" y1="189.53" x2="359.5" y2="158.87" xlink:href="#New_Gradient_Swatch_1"/><linearGradient id="New_Gradient_Swatch_1-4" x1="356.87" y1="157.08" x2="339.42" y2="192.23" xlink:href="#New_Gradient_Swatch_1"/><linearGradient id="New_Gradient_Swatch_1-5" x1="276.19" y1="136.92" x2="378.56" y2="187.44" xlink:href="#New_Gradient_Swatch_1"/></defs><title>Cortex Outline White</title><g class="cls-1"><g id="_3-REVISED3_Image" data-name="3-REVISED3 Image"><g id="Outline"><path class="cls-2" d="M214.09,219.23c-16.53,27.55-52.14,46.63-88.6,46.63C64,265.86,19.08,220.92,19.08,162S63.17,58.13,123,58.13a105.14,105.14,0,0,1,84.79,43.24l-29.68,25c-11-15.26-29.68-30.1-55.11-30.1-36,0-63.6,28-63.6,65.71,0,39,28,65.72,66.14,65.72,26.28,0,44.94-14,57.66-31Z"/><path class="cls-2" d="M327.46,58.13c61.88,0,108.18,44.51,108.18,103.86s-46.3,103.87-108.18,103.87S219.29,221.35,219.29,162,265.59,58.13,327.46,58.13Zm0,169.58c38.73,0,65.89-29.26,65.89-65.72s-27.16-65.71-65.89-65.71S261.58,125.53,261.58,162,288.74,227.71,327.46,227.71Z"/><path class="cls-2" d="M565.89,98c-4.66-1.28-9.33-1.7-15.69-1.7-20.77,0-42.82,14.41-53.84,33.49V261.62H456.09V62.36h39v22.9c9.75-13.57,30.52-27.13,59.78-27.13a101.52,101.52,0,0,1,15.68,1.27Z"/><path class="cls-2" d="M742.25,261.62c-7.63,2.55-19.92,4.24-31.37,4.24-25,0-43.67-8.9-56.39-23.32-11.87-13.14-16.11-31.37-16.11-53V98.4H587.51v-36h50.87V7.25h40.28V62.36h63.59v36H678.66v93.27c0,10.6.85,19.5,5.93,25.44,5.52,6.78,17,10.6,27.56,10.6,5.94,0,16.11-.85,22.05-2.55Z"/><path class="cls-2" d="M785.5,170.47a64.2,64.2,0,0,0,64.44,60.2c29.67,0,45.78-14.41,57.23-27.13l26.28,25c-14.83,19.08-43.24,37.31-83.94,37.31-58.08,0-103-44.09-103-103.87s40.7-103.86,97.09-103.86c55.53,0,95.81,44.93,95.81,103.86a73.62,73.62,0,0,1-.42,8.48Zm3.39-33.91H897.42c-5.94-25.44-28.83-43.25-52.57-43.25A57.91,57.91,0,0,0,788.89,136.56Z"/><path class="cls-2" d="M1032.66,187l-53.84,74.61H930.91l75.47-104.71L938.12,62.36H985.6l47.06,64.45,47.06-64.45h47.48L1059,156.91l75.46,104.71H1086.5Z"/><path class="cls-2" d="M682.28,293.72h26.29v5.2h-10.4V332h-5.48V298.92H682.28Z"/><path class="cls-2" d="M736.77,308.77V314H724.18v12.86h17V332H718.7V293.72h21.91v5.2H724.18v9.85Z"/><path class="cls-2" d="M769,293.17a19.13,19.13,0,0,1,14,5.91l-3.67,3.62A14.51,14.51,0,0,0,769,298.37c-7.83,0-13.91,6.24-13.91,14.51,0,8.64,6.25,14.5,14.41,14.5a14.32,14.32,0,0,0,11-5.42l3.89,3.51a19.31,19.31,0,0,1-14.89,7.11c-11.45,0-19.88-8.37-19.88-19.7C749.64,301.82,758,293.17,769,293.17Z"/><path class="cls-2" d="M821.65,314H800.29V332h-5.48V293.72h5.48v15h21.36v-15h5.47V332h-5.47Z"/><path class="cls-2" d="M846.84,303.9V332h-5.48V293.72h3.83l23,28.13V293.72h5.48V332h-3.83Z"/><path class="cls-2" d="M904.06,293.17c10.84,0,19.17,8.54,19.17,19.71s-8.33,19.7-19.17,19.7-19.17-8.54-19.17-19.7S893.22,293.17,904.06,293.17Zm0,34.21c7.83,0,13.69-6.18,13.69-14.5s-5.86-14.51-13.69-14.51-13.69,6.24-13.69,14.51S896.23,327.38,904.06,327.38Z"/><path class="cls-2" d="M939.92,326.83h17V332H934.45V293.72h5.47Z"/><path class="cls-2" d="M983.46,293.17c10.84,0,19.17,8.54,19.17,19.71s-8.33,19.7-19.17,19.7-19.17-8.54-19.17-19.7S972.62,293.17,983.46,293.17Zm0,34.21c7.83,0,13.69-6.18,13.69-14.5s-5.86-14.51-13.69-14.51-13.69,6.24-13.69,14.51S975.63,327.38,983.46,327.38Z"/><path class="cls-2" d="M1045.61,325.47a19.47,19.47,0,0,1-14.89,7.11c-11.45,0-19.88-8.37-19.88-19.7,0-11.06,8.32-19.71,19.38-19.71a19.13,19.13,0,0,1,14,5.91l-3.67,3.62a14.51,14.51,0,0,0-10.35-4.33c-7.83,0-13.91,6.24-13.91,14.51,0,8.64,6.25,14.5,14.41,14.5a13.34,13.34,0,0,0,9.42-3.56V314h-11v-5.2h16.43Z"/><path class="cls-2" d="M1058.48,293.72H1064V332h-5.47Z"/><path class="cls-2" d="M1096.26,308.77V314h-12.59v12.86h17V332h-22.45V293.72h21.9v5.2h-16.42v9.85Z"/><path class="cls-2" d="M1112.63,322.46c2.25,2.73,5.42,4.92,9.37,4.92,3.56,0,6.68-2.3,6.68-5.75,0-5.85-8.11-6.51-13.2-9.85a9.73,9.73,0,0,1-4.87-8.43c0-5.58,4.92-10.18,11.61-10.18a15.8,15.8,0,0,1,10.29,3.83l-3.23,4a10.56,10.56,0,0,0-6.84-2.63c-3.18,0-6.36,1.81-6.36,5.15,0,4.87,8.16,5.91,13.09,9.19a10.13,10.13,0,0,1,5,8.76c0,6.73-5.2,11.11-11.88,11.11a17.21,17.21,0,0,1-13.42-6.4Z"/><path class="cls-3" d="M273.18,139.74l1.88.67a56.62,56.62,0,0,1,7-12.22l-1.48-1.33A58.48,58.48,0,0,0,273.18,139.74Z"/><path class="cls-4" d="M280.39,133.14a54.49,54.49,0,0,1,46.47-26.37,53.59,53.59,0,0,1,27.52,7.6l-1.84,3a50.21,50.21,0,0,0-25.74-7.1,51,51,0,0,0-43.65,24.94Zm20.32,74a52.6,52.6,0,0,1-19-69.39l-2.92-1.82a56.19,56.19,0,0,0,20.3,74.4Z"/><path class="cls-5" d="M326.72,108.56a52.49,52.49,0,0,0-36.56,14.86l3.25,3.29a47.91,47.91,0,0,1,33.31-13.49c26.69,0,48.41,22,48.41,49s-21.72,49-48.41,49-48.41-22-48.41-49a49.42,49.42,0,0,1,1.3-11.22l-4.37-1.56a54.33,54.33,0,0,0-1.53,12.78c0,29.57,23.78,53.64,53,53.64s53-24.07,53-53.64S356,108.56,326.72,108.56Z"/><path class="cls-3" d="M377.76,176.65l-4.41-1.34a49,49,0,0,1-11.15,20.17c.81.83,2,2.07,3.16,3.38A53.89,53.89,0,0,0,377.76,176.65Z"/><path class="cls-6" d="M340.3,113.35a50.44,50.44,0,0,1,35.33,60.39l-2.86-.69a47.5,47.5,0,0,0-33-56.8Zm18.75,83.23a47.44,47.44,0,0,1-65.52-.52l-2.16,2a50.36,50.36,0,0,0,69.54.81Z"/><path class="cls-7" d="M305.07,122.77a44.92,44.92,0,0,1,60.27,16.38l-3.62,2.31a40.62,40.62,0,0,0-54.32-15.11Zm21.05,80.14A40.75,40.75,0,0,1,286,163.24h-4.29a45,45,0,0,0,44.35,43.94C326.09,206.06,326.1,204.34,326.12,202.91Z"/><path class="cls-8" d="M354.12,190.71a39.93,39.93,0,1,1,11.08-19.37l3,.68a42.73,42.73,0,1,0-12.1,21Z"/><path class="cls-9" d="M286.05,149.41l2.82,1.16a39.69,39.69,0,0,1,9-15.38l-2.17-2.13A42.63,42.63,0,0,0,286.05,149.41Z"/><path class="cls-10" d="M327.28,121.59a40.64,40.64,0,0,1,40,39.36l-2.89.12a37.74,37.74,0,0,0-37.12-36.58Zm17.17,73.9a37.61,37.61,0,0,1-50.06-13.92l-2.45,1.53A40.52,40.52,0,0,0,345.87,198Z"/><path class="cls-11" d="M299.21,142.06A34,34,0,0,1,345.9,134l-1.58,1.86a31.6,31.6,0,0,0-43.3,7.87Zm13.36,48.48A31.73,31.73,0,0,1,295,162.2a31.41,31.41,0,0,1,2.67-12.68l-2.15-1.15a34,34,0,0,0,16.07,44.4Z"/><path class="cls-12" d="M357.06,163.72a27.82,27.82,0,0,0-.42-7.15l-2,0a26.07,26.07,0,0,1-20.89,30.8l.3,2A28.24,28.24,0,0,0,357.06,163.72Z"/><path class="cls-13" d="M352.56,155.21a26.16,26.16,0,0,1-17.49,33.91l.58,1.92a28.07,28.07,0,0,0,18.91-36.13Z"/><path class="cls-14" d="M385.84,162.13A58.56,58.56,0,1,1,270.46,148l1.9.59a56.71,56.71,0,1,0,15.53-27l-1.42-1.39a58.52,58.52,0,0,1,99.37,41.93Zm-111.5-25,1.71,1a57.2,57.2,0,0,1,4.53-7.91L279,129.07A58.41,58.41,0,0,0,274.34,137.16Z"/><path class="cls-3" d="M383.38,178.94l-1.91-.56a56.65,56.65,0,0,1-13.66,23.25l1.37,1.44A58.58,58.58,0,0,0,383.38,178.94Z"/></g></g></g></svg>